<svg xmlns="http://www.w3.org/2000/svg" width="10" height="10" fill="none" preserveAspectRatio="none" viewBox="0 0 10 10" data-testid="airbnb" class="" style="min-width: 20px; height: 20px; width: 20px;"><path fill="#FF5A5F" d="M5 7.363c-.545-.684-.865-1.283-.972-1.796-.107-.416-.064-.747.118-.993.192-.288.48-.427.854-.427s.662.139.854.427c.182.246.225.577.118.993-.118.524-.438 1.122-.972 1.796m3.868.459a1.47 1.47 0 0 1-.886 1.121c-.908.395-1.806-.235-2.575-1.09 1.272-1.592 1.507-2.83.961-3.632-.32-.46-.78-.684-1.368-.684-1.185 0-1.838 1.004-1.582 2.17.15.63.545 1.346 1.175 2.147-.395.438-.769.747-1.1.94a1.9 1.9 0 0 1-.737.245C1.678 9.2.833 8.153 1.217 7.073c.054-.139.16-.395.342-.79l.01-.022a119 119 0 0 1 2.127-4.348l.021-.054.235-.448c.182-.331.257-.48.545-.662a1.03 1.03 0 0 1 1.314.278c.064.095.138.224.235.384l.224.438.032.064A119 119 0 0 1 8.428 6.26l.01.011.214.491.129.31c.098.247.12.492.087.749m.491-.962a7 7 0 0 0-.363-.844v-.01a133 133 0 0 0-2.137-4.37l-.042-.065C6.336.588 5.994 0 5 0c-.983 0-1.4.683-1.827 1.571l-.032.064a133 133 0 0 0-2.137 4.37v.022l-.225.49c-.085.204-.128.31-.138.343-.545 1.496.576 2.81 1.934 2.81.01 0 .053 0 .106-.011h.15C3.536 9.573 4.263 9.125 5 8.323c.737.8 1.464 1.25 2.169 1.336h.15c.053.01.096.01.106.01 1.358.001 2.48-1.313 1.934-2.81"></path></svg>