<svg xmlns="http://www.w3.org/2000/svg" viewBox="0 0 32 32" fill="#FF5A5F"><path d="M16 1c2.008 0 3.463.963 4.751 3.269l.533 1.025c1.954 3.83 6.114 12.54 7.1 14.836l.145.353c.667 1.591.91 3.25.72 4.933-.432 3.813-4.1 6.965-8.249 6.965-2.28 0-3.984-1.258-4.996-2.583C14.99 31.06 13.287 32.316 11 32.316c-4.15 0-7.817-3.152-8.249-6.965-.19-1.683.053-3.342.72-4.933l.256-.604c.907-2.096 4.965-10.638 7.032-14.73l.498-.948C12.537 1.963 13.992 1 16 1zm0 2c-1.273 0-2.29.682-3.415 2.694l-.532 1.025c-1.954 3.83-6.114 12.54-7.1 14.836l-.145.353c-.538 1.284-.716 2.6-.576 3.903.34 2.996 3.193 5.505 6.768 5.505 1.77 0 2.998-1.554 4.098-3.327l.38-.638c.677-1.157 1.83-1.157 2.506-.02l.278.487c1.137 1.93 2.562 3.498 4.416 3.498 3.575 0 6.427-2.51 6.768-5.505.14-1.303-.038-2.619-.576-3.903l-.423-1.02c-.933-2.197-5.06-10.85-7.067-14.89l-.278-.507C18.29 2.682 17.273 2 16 2z"/></svg>
